<svg xmlns="http://www.w3.org/2000/svg" viewBox="0 0 232 52" width="232" height="52" role="img" aria-label="My Green Event">
  <title>My Green Event — Wedding Planner Eco-Responsable en Provence</title>

  <!-- Botanical mark: two leaves sharing a stem -->
  <path d="M20 6 C11 9 3 17 3 27 C3 39 11 46 20 44 C19 37 17 29 17 23 C17 15 18 9 20 6Z" fill="#7ba854"/>
  <path d="M20 6 C29 9 37 17 37 27 C37 39 29 46 20 44 C21 37 23 29 23 23 C23 15 22 9 20 6Z" fill="#5c8a3c"/>
  <path d="M20 8 L20 43" stroke="#ffffff" stroke-width="0.7" stroke-opacity="0.45" fill="none" stroke-linecap="round"/>
  <path d="M20 44 L20 50" stroke="#5c8a3c" stroke-width="1.5" stroke-linecap="round" fill="none"/>

  <!-- my — italic, spaced, muted -->
  <text x="50" y="21" font-family="'Cormorant Garamond',Georgia,'Times New Roman',serif" font-size="10" font-style="italic" font-weight="400" fill="#aaaaaa" letter-spacing="5">my</text>

  <!-- Green Event -->
  <text x="48" y="44" font-family="'Cormorant Garamond',Georgia,'Times New Roman',serif" font-size="27" font-weight="600" letter-spacing="0.3" fill="#2d2d2d">
    <tspan fill="#5c8a3c" font-style="italic">Green</tspan><tspan fill="#2d2d2d"> Event</tspan>
  </text>
</svg>
