<svg xmlns="http://www.w3.org/2000/svg" viewBox="0 0 232 52" width="232" height="52" role="img" aria-label="My Green Event">
  <title>My Green Event — Wedding Planner Eco-Responsable en Provence</title>

  <!-- Botanical mark: two leaves sharing a stem -->
  <path d="M20 6 C11 9 3 17 3 27 C3 39 11 46 20 44 C19 37 17 29 17 23 C17 15 18 9 20 6Z" fill="rgba(255,255,255,0.75)"/>
  <path d="M20 6 C29 9 37 17 37 27 C37 39 29 46 20 44 C21 37 23 29 23 23 C23 15 22 9 20 6Z" fill="rgba(255,255,255,1)"/>
  <path d="M20 8 L20 43" stroke="rgba(255,255,255,0.3)" stroke-width="0.7" fill="none" stroke-linecap="round"/>
  <path d="M20 44 L20 50" stroke="rgba(255,255,255,0.7)" stroke-width="1.5" stroke-linecap="round" fill="none"/>

  <!-- my -->
  <text x="50" y="21" font-family="'Cormorant Garamond',Georgia,'Times New Roman',serif" font-size="10" font-style="italic" font-weight="400" fill="rgba(255,255,255,0.55)" letter-spacing="5">my</text>

  <!-- Green Event -->
  <text x="48" y="44" font-family="'Cormorant Garamond',Georgia,'Times New Roman',serif" font-size="27" font-weight="600" letter-spacing="0.3" fill="rgba(255,255,255,1)">
    <tspan font-style="italic">Green</tspan><tspan> Event</tspan>
  </text>
</svg>
